<?xml version="1.0" encoding="utf-8"?>
<!-- Svg Vector Icons : http://www.onlinewebfonts.com/icon -->
<!DOCTYPE svg PUBLIC "-//W3C//DTD SVG 1.1//EN" "http://www.w3.org/Graphics/SVG/1.1/DTD/svg11.dtd">
<svg version="1.1" xmlns="http://www.w3.org/2000/svg" xmlns:xlink="http://www.w3.org/1999/xlink" x="0px" y="0px" viewBox="0 0 256 256" enable-background="new 0 0 256 256" xml:space="preserve">
<metadata> Svg Vector Icons : http://www.onlinewebfonts.com/icon </metadata>
<g><g><path fill="#173361" d="M237.6,128.8c0,59.7-48.4,108.1-108.2,108.1c-59.7,0-108.1-48.4-108.1-108.1c0-59.7,48.4-108.2,108.1-108.2C189.2,20.7,237.6,69.1,237.6,128.8z M128,10C62.8,10,10,62.8,10,128c0,65.2,52.8,118,118,118c65.2,0,118-52.8,118-118C246,62.8,193.2,10,128,10z"/><path fill="#173361" d="M106.7,226.3c-5.7-1.2-11.1-2.9-16.4-5"/><path fill="#173361" d="M90.3,220.5c-35.4-16.7-62.6-51.2-62.6-93.5l0,0c1.8,19.1,33.6,52.6,51.2,52.5c11.4-0.5,11.5-12.1,14-14.9c2.5-2.8,12.9-3.9,16.3-4.3c3.4-0.4,7.6,1.3,9.7,1.3c2,0,4.4-2.5,5.3-5.3c1.4,0.7,13.5,5.3,16.7,5.7c5.9-0.5,26-29.1,24.7-34.1c0,0,8.1-4.9,0.5-8.9c1.3-4.3-1.6-5.5-1.6-5.5s-2.3-5.6-7.6-9.1c3.7-4.8,1.7-11.6,1.7-11.6s-5-6-0.9-9.9c-10.8-17-33.2-8.2-32.7,5.2c0.3,10.1,11.7,16.2,11.1,20.7S98.5,87.6,98.5,87.6l4.7,11.6c2,1.3-11.3-5.3-11.3-5.3l9.9,25.9c0,0-11.7,16.5,5.9,27.4c-9.2,3.1-15.9,8.9-15.9,8.9s-6.6-2.7-7.1,5.6c-11.5,1.8-41.8-12.3-41.8-41.1c0-26.7,26-37.6,43.9-37.6c0-21.8,12.3-44,44-44c29.6,0,38.4,35.4,38.4,43.8c25.9-2.4,43.5,18.3,43.5,39.4s-22.5,36.6-34.2,38.1C156.3,160.1,118.1,163.2,90.3,220.5z"/><path fill="#173361" d="M141.9,114.8c0,5.2,4.2,9.3,9.3,9.3s9.3-4.2,9.3-9.3c0-5.2-4.2-9.3-9.3-9.3S141.9,109.6,141.9,114.8z"/><path fill="#173361" d="M110.1,117.7c-5.1,2.3-17.4,13.9,0.7,28.5c14.5,9.4,21.7,12.3,28.8,12c7.1-0.3,23.7-28.7,23.6-31.1c-10,5.2-21.3,6.1-22.2,6.5C140.3,133.9,124.3,111.6,110.1,117.7z"/><path fill="#173361" d="M106.7,226.3c6.9,1.5,14,2.3,21.3,2.3c55.5,0,100.6-45,100.6-100.6c0-1.2,0-2.3,0-3.4c0,0-3,42.8-43.4,52C119.4,176.8,106.7,226.3,106.7,226.3z"/></g></g>
</svg>
